<?xml version="1.0" encoding="utf-8"?>
<!-- Generator: Adobe Illustrator 26.3.1, SVG Export Plug-In . SVG Version: 6.00 Build 0)  -->
<svg version="1.1" id="Capa_1" xmlns="http://www.w3.org/2000/svg" xmlns:xlink="http://www.w3.org/1999/xlink" x="0px" y="0px"
	 viewBox="0 0 149 177.8" style="enable-background:new 0 0 149 177.8;" xml:space="preserve">
<style type="text/css">
	.st0{fill:#FFFFFF;}
</style>
<g>
	<g>
		<polygon class="st0" points="149,0 97.1,0 123.1,49.6 		"/>
		<polygon class="st0" points="84.2,0 32.3,0 58.3,49.6 		"/>
		<polygon class="st0" points="25.9,4.1 0,53.7 51.8,53.7 		"/>
		<polygon class="st0" points="90.7,4.1 64.8,53.7 116.6,53.7 		"/>
		<polygon class="st0" points="116.6,62 64.8,62 90.7,111.6 		"/>
		<polygon class="st0" points="58.3,66.2 32.3,115.8 84.2,115.8 		"/>
		<polygon class="st0" points="149,124 97.1,124 123.1,173.6 		"/>
		<polygon class="st0" points="84.2,124 32.3,124 58.3,173.6 		"/>
		<polygon class="st0" points="25.9,128.2 0,177.8 51.8,177.8 		"/>
		<polygon class="st0" points="90.7,128.2 64.8,177.8 116.6,177.8 		"/>
	</g>
</g>
</svg>
